<?xml version="1.0" encoding="UTF-8"?>
<!DOCTYPE svg PUBLIC "-//W3C//DTD SVG 1.1//EN" "http://www.w3.org/Graphics/SVG/1.1/DTD/svg11.dtd">
<!-- Creator: CorelDRAW -->
<svg xmlns="http://www.w3.org/2000/svg" xml:space="preserve" width="6.82666in" height="6.82666in" style="shape-rendering:geometricPrecision; text-rendering:geometricPrecision; image-rendering:optimizeQuality; fill-rule:evenodd; clip-rule:evenodd"
viewBox="0 0 6.82666 6.82666"
 xmlns:xlink="http://www.w3.org/1999/xlink">
 <defs>
  <style type="text/css">
   <![CDATA[
    .fil8 {fill:none}
    .fil3 {fill:#525252}
    .fil2 {fill:#616161}
    .fil7 {fill:#7D7D7D}
    .fil5 {fill:#B2B2B2}
    .fil4 {fill:#BDBDBD}
    .fil6 {fill:#CCCCCC}
    .fil1 {fill:#F3F4F4}
    .fil0 {fill:#919191;fill-rule:nonzero}
   ]]>
  </style>
 </defs>
 <g id="Layer_x0020_1">
  <metadata id="CorelCorpID_0Corel-Layer"/>
  <path class="fil0" d="M4.56875 1.41209l-0.0580079 0.100154 -1.09741 -0.633594 -1.09065 0.629689c-0.00219291,0.00147244 -0.00444094,0.00288583 -0.00676378,0.00422441l-0.0580079 -0.100472 0.0575551 0.100154 -1.09696 0.633323 0 1.26777 0 1.26777 1.0878 0.628035c0.00324409,0.00149606 0.00645669,0.00314173 0.00961024,0.0049685l-0.0580079 0.100472 0.0580079 -0.100154 1.09741 0.633594 1.09065 -0.629689c0.00219291,-0.00147244 0.00444094,-0.00288583 0.00676378,-0.00422441l0.0580079 0.100472 -0.0575551 -0.100154 1.09696 -0.633323 0 -1.26777 0 -1.26777 -1.0878 -0.628035c-0.00324409,-0.00149606 -0.00645669,-0.00314173 -0.00961024,-0.0049685l0.0580079 -0.100472z"/>
  <path class="fil1" d="M1.59372 3.41333c0,0.502465 0.203673,0.957374 0.532953,1.28666 0.329283,0.32928 0.784193,0.532953 1.28666,0.532953 0.502465,0 0.957374,-0.203673 1.28666,-0.532953 0.32928,-0.329283 0.532953,-0.784193 0.532953,-1.28666 0,-0.502465 -0.203673,-0.957374 -0.532953,-1.28666 -0.329283,-0.32928 -0.784193,-0.532953 -1.28666,-0.532953 -0.502465,0 -0.957374,0.203673 -1.28666,0.532953 -0.32928,0.329283 -0.532953,0.784193 -0.532953,1.28666z"/>
  <g id="_378612104">
   <path id="_378613760" class="fil2" d="M2.51248 4.99475c-0.548886,-0.313343 -0.918898,-0.90415 -0.918898,-1.58142 0,-0.677272 0.370012,-1.26808 0.918898,-1.58142l0 3.16284z"/>
   <path id="_378612896" class="fil3" d="M1.59335 3.42389c-0.00307874,-0.63202 0.323571,-1.24786 0.910106,-1.5865 0.586535,-0.338634 1.28319,-0.313598 1.829,0.00507874l-2.7391 1.58142z"/>
   <path id="_378612632" class="fil4" d="M2.4942 1.84246c0.545803,-0.318677 1.24246,-0.343713 1.829,-0.00507874 0.586535,0.338638 0.913185,0.95448 0.910106,1.5865l-2.7391 -1.58142z"/>
   <path id="_378612344" class="fil5" d="M4.31418 1.83191c0.548886,0.313343 0.918898,0.90415 0.918898,1.58142 0,0.677272 -0.370012,1.26808 -0.918898,1.58142l0 -3.16284z"/>
   <path id="_378612752" class="fil6" d="M5.23331 3.40278c0.00307874,0.63202 -0.323571,1.24786 -0.910106,1.5865 -0.586535,0.338634 -1.28319,0.313598 -1.829,-0.00507874l2.7391 -1.58142z"/>
   <path id="_378612056" class="fil7" d="M4.33246 4.9842c-0.545803,0.318677 -1.24246,0.343713 -1.829,0.00507874 -0.586535,-0.338638 -0.913185,-0.95448 -0.910106,-1.5865l2.7391 1.58142z"/>
   <path id="_378611936" class="fil2" d="M2.37601 4.90852l-0.00949606 -0.00659843 -0.00832283 -0.00591339c-0.205886,-0.14678 -0.379909,-0.335327 -0.509669,-0.553303l-0.00238583 -0.00402362c-0.00300787,-0.00509055 -0.00595276,-0.0102165 -0.00892126,-0.0153307l-0.00894882 -0.015622 -0.00209449 -0.00373228c-0.124008,-0.221457 -0.200311,-0.466567 -0.224465,-0.718382l-0.000948819 -0.0100748 -0.000964567 -0.0114252c-0.0040748,-0.0497244 -0.00620866,-0.0999961 -0.00620866,-0.150787l9.05512e-005 -0.0103819 0.918807 0.530484 0 1.06094 -0.00902362 -0.00510236c-0.0439646,-0.0253819 -0.0864291,-0.0523504 -0.127449,-0.0807441z"/>
  </g>
 </g>
 <rect class="fil8" width="6.82666" height="6.82666"/>
</svg>
